<?xml version="1.0" encoding="UTF-8" standalone="no"?>
<!-- Created with Inkscape (http://www.inkscape.org/) -->

<svg
   width="147.93674mm"
   height="147.93674mm"
   viewBox="0 0 147.93674 147.93674"
   version="1.1"
   id="svg1"
   inkscape:version="1.4 (e7c3feb100, 2024-10-09)"
   sodipodi:docname="favicon.svg"
   xmlns:inkscape="http://www.inkscape.org/namespaces/inkscape"
   xmlns:sodipodi="http://sodipodi.sourceforge.net/DTD/sodipodi-0.dtd"
   xmlns="http://www.w3.org/2000/svg"
   xmlns:svg="http://www.w3.org/2000/svg">
  <sodipodi:namedview
     id="namedview1"
     pagecolor="#ffffff"
     bordercolor="#000000"
     borderopacity="0.25"
     inkscape:showpageshadow="2"
     inkscape:pageopacity="0.0"
     inkscape:pagecheckerboard="0"
     inkscape:deskcolor="#d1d1d1"
     inkscape:document-units="mm"
     inkscape:zoom="0.51780096"
     inkscape:cx="-39.590502"
     inkscape:cy="395.90502"
     inkscape:window-width="2560"
     inkscape:window-height="1011"
     inkscape:window-x="0"
     inkscape:window-y="0"
     inkscape:window-maximized="1"
     inkscape:current-layer="layer1" />
  <defs
     id="defs1" />
  <g
     inkscape:label="Layer 1"
     inkscape:groupmode="layer"
     id="layer1"
     transform="translate(-32.799881,-46.891121)">
    <path
       style="vector-effect:non-scaling-stroke;fill:#000000;stroke-width:0.264583;stroke-linecap:round;stroke-linejoin:bevel;-inkscape-stroke:hairline;paint-order:markers stroke fill"
       id="path1"
       sodipodi:type="arc"
       sodipodi:cx="106.76825"
       sodipodi:cy="120.85949"
       sodipodi:rx="73.968369"
       sodipodi:ry="73.968369"
       sodipodi:start="0"
       sodipodi:end="6.2830699"
       sodipodi:open="true"
       sodipodi:arc-type="arc"
       d="m 180.73662,120.85949 a 73.968369,73.968369 0 0 1 -73.96624,73.96837 73.968369,73.968369 0 0 1 -73.970499,-73.9641 73.968369,73.968369 0 0 1 73.961969,-73.972639 73.968369,73.968369 0 0 1 73.97477,73.959829" />
    <path
       style="vector-effect:non-scaling-stroke;fill:#ffffff;stroke-width:0.264583;stroke-linecap:round;stroke-linejoin:bevel;-inkscape-stroke:hairline;paint-order:markers stroke fill"
       id="path2-5"
       sodipodi:type="arc"
       sodipodi:cx="147.66739"
       sodipodi:cy="120.85949"
       sodipodi:rx="24.641632"
       sodipodi:ry="24.641632"
       sodipodi:start="0"
       sodipodi:end="6.2830699"
       sodipodi:open="true"
       sodipodi:arc-type="arc"
       d="m 172.30902,120.85949 a 24.641632,24.641632 0 0 1 -24.64092,24.64163 24.641632,24.641632 0 0 1 -24.64234,-24.64021 24.641632,24.641632 0 0 1 24.6395,-24.643053 24.641632,24.641632 0 0 1 24.64376,24.638793" />
    <rect
       style="vector-effect:non-scaling-stroke;fill:#ffffff;stroke:none;stroke-width:0.264583;stroke-linecap:round;stroke-linejoin:bevel;-inkscape-stroke:hairline;paint-order:markers stroke fill"
       id="rect2"
       width="79.127739"
       height="12.645985"
       x="67.204384"
       y="114.5365" />
    <path
       style="vector-effect:non-scaling-stroke;fill:#ffffff;stroke-width:0.264583;stroke-linecap:round;stroke-linejoin:bevel;-inkscape-stroke:hairline;paint-order:markers stroke fill"
       id="path2"
       sodipodi:type="arc"
       sodipodi:cx="67.746346"
       sodipodi:cy="120.85949"
       sodipodi:rx="24.641632"
       sodipodi:ry="24.641632"
       sodipodi:start="0"
       sodipodi:end="6.2830699"
       sodipodi:open="true"
       sodipodi:arc-type="arc"
       d="M 92.387978,120.85949 A 24.641632,24.641632 0 0 1 67.747056,145.50112 24.641632,24.641632 0 0 1 43.104713,120.86091 24.641632,24.641632 0 0 1 67.744213,96.217857 24.641632,24.641632 0 0 1 92.387977,120.85665" />
  </g>
</svg>
